<mxfile host="app.diagrams.net" modified="2024-03-17T00:45:34.312Z" agent="Mozilla/5.0 (Windows NT 10.0; Win64; x64) AppleWebKit/537.36 (KHTML, like Gecko) Chrome/122.0.0.0 Safari/537.36" etag="PzMDIWZTCRdS3O3GyaYA" version="24.0.2" type="device">
  <diagram id="C5RBs43oDa-KdzZeNtuy" name="Page-1">
    <mxGraphModel dx="1174" dy="837" grid="1" gridSize="13" guides="1" tooltips="1" connect="1" arrows="1" fold="1" page="1" pageScale="1" pageWidth="1200" pageHeight="1920" math="0" shadow="0">
      <root>
        <mxCell id="WIyWlLk6GJQsqaUBKTNV-0" />
        <mxCell id="WIyWlLk6GJQsqaUBKTNV-1" parent="WIyWlLk6GJQsqaUBKTNV-0" />
        <mxCell id="q12dKpygNHWUWFW-9CNw-0" value="Game" style="swimlane;fontStyle=1;align=center;verticalAlign=top;childLayout=stackLayout;horizontal=1;startSize=26;horizontalStack=0;resizeParent=1;resizeParentMax=0;resizeLast=0;collapsible=1;marginBottom=0;whiteSpace=wrap;html=1;fontSize=14;" vertex="1" parent="WIyWlLk6GJQsqaUBKTNV-1">
          <mxGeometry x="30" y="50" width="390" height="658" as="geometry" />
        </mxCell>
        <mxCell id="q12dKpygNHWUWFW-9CNw-1" value="- parser: Parser" style="text;strokeColor=none;fillColor=none;align=left;verticalAlign=top;spacingLeft=4;spacingRight=4;overflow=hidden;rotatable=0;points=[[0,0.5],[1,0.5]];portConstraint=eastwest;whiteSpace=wrap;html=1;fontSize=14;" vertex="1" parent="q12dKpygNHWUWFW-9CNw-0">
          <mxGeometry y="26" width="390" height="26" as="geometry" />
        </mxCell>
        <mxCell id="q12dKpygNHWUWFW-9CNw-8" value="- currentRoom: Room" style="text;strokeColor=none;fillColor=none;align=left;verticalAlign=top;spacingLeft=4;spacingRight=4;overflow=hidden;rotatable=0;points=[[0,0.5],[1,0.5]];portConstraint=eastwest;whiteSpace=wrap;html=1;fontSize=14;" vertex="1" parent="q12dKpygNHWUWFW-9CNw-0">
          <mxGeometry y="52" width="390" height="26" as="geometry" />
        </mxCell>
        <mxCell id="q12dKpygNHWUWFW-9CNw-9" value="- previousRoom: Room" style="text;strokeColor=none;fillColor=none;align=left;verticalAlign=top;spacingLeft=4;spacingRight=4;overflow=hidden;rotatable=0;points=[[0,0.5],[1,0.5]];portConstraint=eastwest;whiteSpace=wrap;html=1;fontSize=14;" vertex="1" parent="q12dKpygNHWUWFW-9CNw-0">
          <mxGeometry y="78" width="390" height="26" as="geometry" />
        </mxCell>
        <mxCell id="q12dKpygNHWUWFW-9CNw-10" value="- previousRoomStack: Stack&amp;lt;Room&amp;gt;" style="text;strokeColor=none;fillColor=none;align=left;verticalAlign=top;spacingLeft=4;spacingRight=4;overflow=hidden;rotatable=0;points=[[0,0.5],[1,0.5]];portConstraint=eastwest;whiteSpace=wrap;html=1;fontSize=14;" vertex="1" parent="q12dKpygNHWUWFW-9CNw-0">
          <mxGeometry y="104" width="390" height="26" as="geometry" />
        </mxCell>
        <mxCell id="q12dKpygNHWUWFW-9CNw-12" value="- itemTaken: Item" style="text;strokeColor=none;fillColor=none;align=left;verticalAlign=top;spacingLeft=4;spacingRight=4;overflow=hidden;rotatable=0;points=[[0,0.5],[1,0.5]];portConstraint=eastwest;whiteSpace=wrap;html=1;fontSize=14;" vertex="1" parent="q12dKpygNHWUWFW-9CNw-0">
          <mxGeometry y="130" width="390" height="26" as="geometry" />
        </mxCell>
        <mxCell id="q12dKpygNHWUWFW-9CNw-14" value="- numOfPickups: int" style="text;strokeColor=none;fillColor=none;align=left;verticalAlign=top;spacingLeft=4;spacingRight=4;overflow=hidden;rotatable=0;points=[[0,0.5],[1,0.5]];portConstraint=eastwest;whiteSpace=wrap;html=1;fontSize=14;" vertex="1" parent="q12dKpygNHWUWFW-9CNw-0">
          <mxGeometry y="156" width="390" height="26" as="geometry" />
        </mxCell>
        <mxCell id="q12dKpygNHWUWFW-9CNw-7" value="chargedRoom: Room" style="text;strokeColor=none;fillColor=none;align=left;verticalAlign=top;spacingLeft=4;spacingRight=4;overflow=hidden;rotatable=0;points=[[0,0.5],[1,0.5]];portConstraint=eastwest;whiteSpace=wrap;html=1;fontSize=14;" vertex="1" parent="q12dKpygNHWUWFW-9CNw-0">
          <mxGeometry y="182" width="390" height="26" as="geometry" />
        </mxCell>
        <mxCell id="q12dKpygNHWUWFW-9CNw-2" value="" style="line;strokeWidth=1;fillColor=none;align=left;verticalAlign=middle;spacingTop=-1;spacingLeft=3;spacingRight=3;rotatable=0;labelPosition=right;points=[];portConstraint=eastwest;strokeColor=inherit;fontSize=14;" vertex="1" parent="q12dKpygNHWUWFW-9CNw-0">
          <mxGeometry y="208" width="390" height="8" as="geometry" />
        </mxCell>
        <mxCell id="q12dKpygNHWUWFW-9CNw-3" value="+ Game()" style="text;strokeColor=none;fillColor=none;align=left;verticalAlign=top;spacingLeft=4;spacingRight=4;overflow=hidden;rotatable=0;points=[[0,0.5],[1,0.5]];portConstraint=eastwest;whiteSpace=wrap;html=1;fontSize=14;" vertex="1" parent="q12dKpygNHWUWFW-9CNw-0">
          <mxGeometry y="216" width="390" height="26" as="geometry" />
        </mxCell>
        <mxCell id="q12dKpygNHWUWFW-9CNw-4" value="- createRooms(): void" style="text;strokeColor=none;fillColor=none;align=left;verticalAlign=top;spacingLeft=4;spacingRight=4;overflow=hidden;rotatable=0;points=[[0,0.5],[1,0.5]];portConstraint=eastwest;whiteSpace=wrap;html=1;fontSize=14;" vertex="1" parent="q12dKpygNHWUWFW-9CNw-0">
          <mxGeometry y="242" width="390" height="26" as="geometry" />
        </mxCell>
        <mxCell id="q12dKpygNHWUWFW-9CNw-15" value="+ play(): void" style="text;strokeColor=none;fillColor=none;align=left;verticalAlign=top;spacingLeft=4;spacingRight=4;overflow=hidden;rotatable=0;points=[[0,0.5],[1,0.5]];portConstraint=eastwest;whiteSpace=wrap;html=1;fontSize=14;" vertex="1" parent="q12dKpygNHWUWFW-9CNw-0">
          <mxGeometry y="268" width="390" height="26" as="geometry" />
        </mxCell>
        <mxCell id="q12dKpygNHWUWFW-9CNw-5" value="- printWelcome(): void" style="text;strokeColor=none;fillColor=none;align=left;verticalAlign=top;spacingLeft=4;spacingRight=4;overflow=hidden;rotatable=0;points=[[0,0.5],[1,0.5]];portConstraint=eastwest;whiteSpace=wrap;html=1;fontSize=14;" vertex="1" parent="q12dKpygNHWUWFW-9CNw-0">
          <mxGeometry y="294" width="390" height="26" as="geometry" />
        </mxCell>
        <mxCell id="q12dKpygNHWUWFW-9CNw-16" value="- processCommand(command: Coomand): boolean" style="text;strokeColor=none;fillColor=none;align=left;verticalAlign=top;spacingLeft=4;spacingRight=4;overflow=hidden;rotatable=0;points=[[0,0.5],[1,0.5]];portConstraint=eastwest;whiteSpace=wrap;html=1;fontSize=14;" vertex="1" parent="q12dKpygNHWUWFW-9CNw-0">
          <mxGeometry y="320" width="390" height="26" as="geometry" />
        </mxCell>
        <mxCell id="q12dKpygNHWUWFW-9CNw-19" value="- printHelp(): void" style="text;strokeColor=none;fillColor=none;align=left;verticalAlign=top;spacingLeft=4;spacingRight=4;overflow=hidden;rotatable=0;points=[[0,0.5],[1,0.5]];portConstraint=eastwest;whiteSpace=wrap;html=1;fontSize=14;" vertex="1" parent="q12dKpygNHWUWFW-9CNw-0">
          <mxGeometry y="346" width="390" height="26" as="geometry" />
        </mxCell>
        <mxCell id="q12dKpygNHWUWFW-9CNw-20" value="- itemsAndCarry(): void" style="text;strokeColor=none;fillColor=none;align=left;verticalAlign=top;spacingLeft=4;spacingRight=4;overflow=hidden;rotatable=0;points=[[0,0.5],[1,0.5]];portConstraint=eastwest;whiteSpace=wrap;html=1;fontSize=14;" vertex="1" parent="q12dKpygNHWUWFW-9CNw-0">
          <mxGeometry y="372" width="390" height="26" as="geometry" />
        </mxCell>
        <mxCell id="q12dKpygNHWUWFW-9CNw-21" value="- goRoom(command: Command): void" style="text;strokeColor=none;fillColor=none;align=left;verticalAlign=top;spacingLeft=4;spacingRight=4;overflow=hidden;rotatable=0;points=[[0,0.5],[1,0.5]];portConstraint=eastwest;whiteSpace=wrap;html=1;fontSize=14;" vertex="1" parent="q12dKpygNHWUWFW-9CNw-0">
          <mxGeometry y="398" width="390" height="26" as="geometry" />
        </mxCell>
        <mxCell id="q12dKpygNHWUWFW-9CNw-18" value="- quit(command: Command): boolean" style="text;strokeColor=none;fillColor=none;align=left;verticalAlign=top;spacingLeft=4;spacingRight=4;overflow=hidden;rotatable=0;points=[[0,0.5],[1,0.5]];portConstraint=eastwest;whiteSpace=wrap;html=1;fontSize=14;" vertex="1" parent="q12dKpygNHWUWFW-9CNw-0">
          <mxGeometry y="424" width="390" height="26" as="geometry" />
        </mxCell>
        <mxCell id="q12dKpygNHWUWFW-9CNw-23" value="- look(command: Command): void" style="text;strokeColor=none;fillColor=none;align=left;verticalAlign=top;spacingLeft=4;spacingRight=4;overflow=hidden;rotatable=0;points=[[0,0.5],[1,0.5]];portConstraint=eastwest;whiteSpace=wrap;html=1;fontSize=14;" vertex="1" parent="q12dKpygNHWUWFW-9CNw-0">
          <mxGeometry y="450" width="390" height="26" as="geometry" />
        </mxCell>
        <mxCell id="q12dKpygNHWUWFW-9CNw-25" value="- eat(command: Command): void" style="text;strokeColor=none;fillColor=none;align=left;verticalAlign=top;spacingLeft=4;spacingRight=4;overflow=hidden;rotatable=0;points=[[0,0.5],[1,0.5]];portConstraint=eastwest;whiteSpace=wrap;html=1;fontSize=14;" vertex="1" parent="q12dKpygNHWUWFW-9CNw-0">
          <mxGeometry y="476" width="390" height="26" as="geometry" />
        </mxCell>
        <mxCell id="q12dKpygNHWUWFW-9CNw-26" value="- back(command: Command): void" style="text;strokeColor=none;fillColor=none;align=left;verticalAlign=top;spacingLeft=4;spacingRight=4;overflow=hidden;rotatable=0;points=[[0,0.5],[1,0.5]];portConstraint=eastwest;whiteSpace=wrap;html=1;fontSize=14;" vertex="1" parent="q12dKpygNHWUWFW-9CNw-0">
          <mxGeometry y="502" width="390" height="26" as="geometry" />
        </mxCell>
        <mxCell id="q12dKpygNHWUWFW-9CNw-27" value="- stackBack(command: Command): void" style="text;strokeColor=none;fillColor=none;align=left;verticalAlign=top;spacingLeft=4;spacingRight=4;overflow=hidden;rotatable=0;points=[[0,0.5],[1,0.5]];portConstraint=eastwest;whiteSpace=wrap;html=1;fontSize=14;" vertex="1" parent="q12dKpygNHWUWFW-9CNw-0">
          <mxGeometry y="528" width="390" height="26" as="geometry" />
        </mxCell>
        <mxCell id="q12dKpygNHWUWFW-9CNw-28" value="- take(command: Command): void" style="text;strokeColor=none;fillColor=none;align=left;verticalAlign=top;spacingLeft=4;spacingRight=4;overflow=hidden;rotatable=0;points=[[0,0.5],[1,0.5]];portConstraint=eastwest;whiteSpace=wrap;html=1;fontSize=14;" vertex="1" parent="q12dKpygNHWUWFW-9CNw-0">
          <mxGeometry y="554" width="390" height="26" as="geometry" />
        </mxCell>
        <mxCell id="q12dKpygNHWUWFW-9CNw-29" value="- drop(command: Command): void" style="text;strokeColor=none;fillColor=none;align=left;verticalAlign=top;spacingLeft=4;spacingRight=4;overflow=hidden;rotatable=0;points=[[0,0.5],[1,0.5]];portConstraint=eastwest;whiteSpace=wrap;html=1;fontSize=14;" vertex="1" parent="q12dKpygNHWUWFW-9CNw-0">
          <mxGeometry y="580" width="390" height="26" as="geometry" />
        </mxCell>
        <mxCell id="q12dKpygNHWUWFW-9CNw-24" value="- charge(command: Command): void" style="text;strokeColor=none;fillColor=none;align=left;verticalAlign=top;spacingLeft=4;spacingRight=4;overflow=hidden;rotatable=0;points=[[0,0.5],[1,0.5]];portConstraint=eastwest;whiteSpace=wrap;html=1;fontSize=14;" vertex="1" parent="q12dKpygNHWUWFW-9CNw-0">
          <mxGeometry y="606" width="390" height="26" as="geometry" />
        </mxCell>
        <mxCell id="q12dKpygNHWUWFW-9CNw-22" value="- fire(command: Command): void" style="text;strokeColor=none;fillColor=none;align=left;verticalAlign=top;spacingLeft=4;spacingRight=4;overflow=hidden;rotatable=0;points=[[0,0.5],[1,0.5]];portConstraint=eastwest;whiteSpace=wrap;html=1;fontSize=14;" vertex="1" parent="q12dKpygNHWUWFW-9CNw-0">
          <mxGeometry y="632" width="390" height="26" as="geometry" />
        </mxCell>
        <mxCell id="q12dKpygNHWUWFW-9CNw-30" value="Room" style="swimlane;fontStyle=1;align=center;verticalAlign=top;childLayout=stackLayout;horizontal=1;startSize=26;horizontalStack=0;resizeParent=1;resizeParentMax=0;resizeLast=0;collapsible=1;marginBottom=0;whiteSpace=wrap;html=1;fontSize=13;" vertex="1" parent="WIyWlLk6GJQsqaUBKTNV-1">
          <mxGeometry x="30" y="790" width="390" height="502" as="geometry" />
        </mxCell>
        <mxCell id="q12dKpygNHWUWFW-9CNw-31" value="- description: String&lt;div style=&quot;font-size: 13px;&quot;&gt;&lt;br style=&quot;font-size: 13px;&quot;&gt;&lt;/div&gt;" style="text;strokeColor=none;fillColor=none;align=left;verticalAlign=top;spacingLeft=4;spacingRight=4;overflow=hidden;rotatable=0;points=[[0,0.5],[1,0.5]];portConstraint=eastwest;whiteSpace=wrap;html=1;fontSize=13;" vertex="1" parent="q12dKpygNHWUWFW-9CNw-30">
          <mxGeometry y="26" width="390" height="26" as="geometry" />
        </mxCell>
        <mxCell id="q12dKpygNHWUWFW-9CNw-35" value="- exits: HashMap&amp;lt;String, Room&amp;gt;&lt;div style=&quot;font-size: 13px;&quot;&gt;&lt;br style=&quot;font-size: 13px;&quot;&gt;&lt;/div&gt;" style="text;strokeColor=none;fillColor=none;align=left;verticalAlign=top;spacingLeft=4;spacingRight=4;overflow=hidden;rotatable=0;points=[[0,0.5],[1,0.5]];portConstraint=eastwest;whiteSpace=wrap;html=1;fontSize=13;" vertex="1" parent="q12dKpygNHWUWFW-9CNw-30">
          <mxGeometry y="52" width="390" height="26" as="geometry" />
        </mxCell>
        <mxCell id="q12dKpygNHWUWFW-9CNw-36" value="- items: ArrayList&amp;lt;Item&amp;gt;&lt;div style=&quot;font-size: 13px;&quot;&gt;&lt;br style=&quot;font-size: 13px;&quot;&gt;&lt;/div&gt;" style="text;strokeColor=none;fillColor=none;align=left;verticalAlign=top;spacingLeft=4;spacingRight=4;overflow=hidden;rotatable=0;points=[[0,0.5],[1,0.5]];portConstraint=eastwest;whiteSpace=wrap;html=1;fontSize=13;" vertex="1" parent="q12dKpygNHWUWFW-9CNw-30">
          <mxGeometry y="78" width="390" height="26" as="geometry" />
        </mxCell>
        <mxCell id="q12dKpygNHWUWFW-9CNw-37" value="# rooms: ArrayList&amp;lt;Room&amp;gt;&amp;nbsp;&lt;div style=&quot;font-size: 13px;&quot;&gt;&lt;br style=&quot;font-size: 13px;&quot;&gt;&lt;/div&gt;" style="text;strokeColor=none;fillColor=none;align=left;verticalAlign=top;spacingLeft=4;spacingRight=4;overflow=hidden;rotatable=0;points=[[0,0.5],[1,0.5]];portConstraint=eastwest;whiteSpace=wrap;html=1;fontSize=13;fontStyle=4" vertex="1" parent="q12dKpygNHWUWFW-9CNw-30">
          <mxGeometry y="104" width="390" height="26" as="geometry" />
        </mxCell>
        <mxCell id="q12dKpygNHWUWFW-9CNw-32" value="" style="line;strokeWidth=1;fillColor=none;align=left;verticalAlign=middle;spacingTop=-1;spacingLeft=3;spacingRight=3;rotatable=0;labelPosition=right;points=[];portConstraint=eastwest;strokeColor=inherit;fontSize=13;" vertex="1" parent="q12dKpygNHWUWFW-9CNw-30">
          <mxGeometry y="130" width="390" height="8" as="geometry" />
        </mxCell>
        <mxCell id="q12dKpygNHWUWFW-9CNw-33" value="+ Room(description: String)" style="text;strokeColor=none;fillColor=none;align=left;verticalAlign=top;spacingLeft=4;spacingRight=4;overflow=hidden;rotatable=0;points=[[0,0.5],[1,0.5]];portConstraint=eastwest;whiteSpace=wrap;html=1;fontSize=13;" vertex="1" parent="q12dKpygNHWUWFW-9CNw-30">
          <mxGeometry y="138" width="390" height="26" as="geometry" />
        </mxCell>
        <mxCell id="q12dKpygNHWUWFW-9CNw-38" value="+ addItem(item: Item): void" style="text;strokeColor=none;fillColor=none;align=left;verticalAlign=top;spacingLeft=4;spacingRight=4;overflow=hidden;rotatable=0;points=[[0,0.5],[1,0.5]];portConstraint=eastwest;whiteSpace=wrap;html=1;fontSize=13;" vertex="1" parent="q12dKpygNHWUWFW-9CNw-30">
          <mxGeometry y="164" width="390" height="26" as="geometry" />
        </mxCell>
        <mxCell id="q12dKpygNHWUWFW-9CNw-47" value="+ takeItem(itemName: String): void&lt;div&gt;&lt;br&gt;&lt;/div&gt;" style="text;strokeColor=none;fillColor=none;align=left;verticalAlign=top;spacingLeft=4;spacingRight=4;overflow=hidden;rotatable=0;points=[[0,0.5],[1,0.5]];portConstraint=eastwest;whiteSpace=wrap;html=1;fontSize=13;" vertex="1" parent="q12dKpygNHWUWFW-9CNw-30">
          <mxGeometry y="190" width="390" height="26" as="geometry" />
        </mxCell>
        <mxCell id="q12dKpygNHWUWFW-9CNw-50" value="+ findItem(itemName: String): Item" style="text;strokeColor=none;fillColor=none;align=left;verticalAlign=top;spacingLeft=4;spacingRight=4;overflow=hidden;rotatable=0;points=[[0,0.5],[1,0.5]];portConstraint=eastwest;whiteSpace=wrap;html=1;fontSize=13;" vertex="1" parent="q12dKpygNHWUWFW-9CNw-30">
          <mxGeometry y="216" width="390" height="26" as="geometry" />
        </mxCell>
        <mxCell id="q12dKpygNHWUWFW-9CNw-49" value="&lt;u&gt;+&amp;nbsp;returnRooms():&amp;nbsp;ArrayList&amp;lt;Room&amp;gt;&lt;/u&gt;" style="text;strokeColor=none;fillColor=none;align=left;verticalAlign=top;spacingLeft=4;spacingRight=4;overflow=hidden;rotatable=0;points=[[0,0.5],[1,0.5]];portConstraint=eastwest;whiteSpace=wrap;html=1;fontSize=13;" vertex="1" parent="q12dKpygNHWUWFW-9CNw-30">
          <mxGeometry y="242" width="390" height="26" as="geometry" />
        </mxCell>
        <mxCell id="q12dKpygNHWUWFW-9CNw-48" value="+ setExit(direction: String, neighbour: Room): void" style="text;strokeColor=none;fillColor=none;align=left;verticalAlign=top;spacingLeft=4;spacingRight=4;overflow=hidden;rotatable=0;points=[[0,0.5],[1,0.5]];portConstraint=eastwest;whiteSpace=wrap;html=1;fontSize=13;" vertex="1" parent="q12dKpygNHWUWFW-9CNw-30">
          <mxGeometry y="268" width="390" height="26" as="geometry" />
        </mxCell>
        <mxCell id="q12dKpygNHWUWFW-9CNw-53" value="+&amp;nbsp;getShortDescription(): String" style="text;strokeColor=none;fillColor=none;align=left;verticalAlign=top;spacingLeft=4;spacingRight=4;overflow=hidden;rotatable=0;points=[[0,0.5],[1,0.5]];portConstraint=eastwest;whiteSpace=wrap;html=1;fontSize=13;" vertex="1" parent="q12dKpygNHWUWFW-9CNw-30">
          <mxGeometry y="294" width="390" height="26" as="geometry" />
        </mxCell>
        <mxCell id="q12dKpygNHWUWFW-9CNw-54" value="+&amp;nbsp;getLongDescription(): String" style="text;strokeColor=none;fillColor=none;align=left;verticalAlign=top;spacingLeft=4;spacingRight=4;overflow=hidden;rotatable=0;points=[[0,0.5],[1,0.5]];portConstraint=eastwest;whiteSpace=wrap;html=1;fontSize=13;" vertex="1" parent="q12dKpygNHWUWFW-9CNw-30">
          <mxGeometry y="320" width="390" height="26" as="geometry" />
        </mxCell>
        <mxCell id="q12dKpygNHWUWFW-9CNw-55" value="-&amp;nbsp; getExitString(): String" style="text;strokeColor=none;fillColor=none;align=left;verticalAlign=top;spacingLeft=4;spacingRight=4;overflow=hidden;rotatable=0;points=[[0,0.5],[1,0.5]];portConstraint=eastwest;whiteSpace=wrap;html=1;fontSize=13;" vertex="1" parent="q12dKpygNHWUWFW-9CNw-30">
          <mxGeometry y="346" width="390" height="26" as="geometry" />
        </mxCell>
        <mxCell id="q12dKpygNHWUWFW-9CNw-56" value="+&amp;nbsp; getExit(description: String): Room" style="text;strokeColor=none;fillColor=none;align=left;verticalAlign=top;spacingLeft=4;spacingRight=4;overflow=hidden;rotatable=0;points=[[0,0.5],[1,0.5]];portConstraint=eastwest;whiteSpace=wrap;html=1;fontSize=13;" vertex="1" parent="q12dKpygNHWUWFW-9CNw-30">
          <mxGeometry y="372" width="390" height="26" as="geometry" />
        </mxCell>
        <mxCell id="q12dKpygNHWUWFW-9CNw-57" value="+&amp;nbsp; getItems(): String" style="text;strokeColor=none;fillColor=none;align=left;verticalAlign=top;spacingLeft=4;spacingRight=4;overflow=hidden;rotatable=0;points=[[0,0.5],[1,0.5]];portConstraint=eastwest;whiteSpace=wrap;html=1;fontSize=13;" vertex="1" parent="q12dKpygNHWUWFW-9CNw-30">
          <mxGeometry y="398" width="390" height="26" as="geometry" />
        </mxCell>
        <mxCell id="q12dKpygNHWUWFW-9CNw-58" value="+&amp;nbsp; getItemNames(): String" style="text;strokeColor=none;fillColor=none;align=left;verticalAlign=top;spacingLeft=4;spacingRight=4;overflow=hidden;rotatable=0;points=[[0,0.5],[1,0.5]];portConstraint=eastwest;whiteSpace=wrap;html=1;fontSize=13;" vertex="1" parent="q12dKpygNHWUWFW-9CNw-30">
          <mxGeometry y="424" width="390" height="26" as="geometry" />
        </mxCell>
        <mxCell id="q12dKpygNHWUWFW-9CNw-59" value="+ cookieInRoom(): boolean" style="text;strokeColor=none;fillColor=none;align=left;verticalAlign=top;spacingLeft=4;spacingRight=4;overflow=hidden;rotatable=0;points=[[0,0.5],[1,0.5]];portConstraint=eastwest;whiteSpace=wrap;html=1;fontSize=13;" vertex="1" parent="q12dKpygNHWUWFW-9CNw-30">
          <mxGeometry y="450" width="390" height="26" as="geometry" />
        </mxCell>
        <mxCell id="q12dKpygNHWUWFW-9CNw-60" value="+ itemInRoom(item: String): boolean" style="text;strokeColor=none;fillColor=none;align=left;verticalAlign=top;spacingLeft=4;spacingRight=4;overflow=hidden;rotatable=0;points=[[0,0.5],[1,0.5]];portConstraint=eastwest;whiteSpace=wrap;html=1;fontSize=13;" vertex="1" parent="q12dKpygNHWUWFW-9CNw-30">
          <mxGeometry y="476" width="390" height="26" as="geometry" />
        </mxCell>
        <mxCell id="q12dKpygNHWUWFW-9CNw-61" value="Beamer" style="swimlane;fontStyle=1;align=center;verticalAlign=top;childLayout=stackLayout;horizontal=1;startSize=26;horizontalStack=0;resizeParent=1;resizeParentMax=0;resizeLast=0;collapsible=1;marginBottom=0;whiteSpace=wrap;html=1;fontSize=13;" vertex="1" parent="WIyWlLk6GJQsqaUBKTNV-1">
          <mxGeometry x="624" y="50" width="410" height="138" as="geometry" />
        </mxCell>
        <mxCell id="q12dKpygNHWUWFW-9CNw-62" value="- isCharge: boolean" style="text;strokeColor=none;fillColor=none;align=left;verticalAlign=top;spacingLeft=4;spacingRight=4;overflow=hidden;rotatable=0;points=[[0,0.5],[1,0.5]];portConstraint=eastwest;whiteSpace=wrap;html=1;fontSize=13;" vertex="1" parent="q12dKpygNHWUWFW-9CNw-61">
          <mxGeometry y="26" width="410" height="26" as="geometry" />
        </mxCell>
        <mxCell id="q12dKpygNHWUWFW-9CNw-63" value="" style="line;strokeWidth=1;fillColor=none;align=left;verticalAlign=middle;spacingTop=-1;spacingLeft=3;spacingRight=3;rotatable=0;labelPosition=right;points=[];portConstraint=eastwest;strokeColor=inherit;fontSize=13;" vertex="1" parent="q12dKpygNHWUWFW-9CNw-61">
          <mxGeometry y="52" width="410" height="8" as="geometry" />
        </mxCell>
        <mxCell id="q12dKpygNHWUWFW-9CNw-64" value="+ Beamer(description: String, weight: double, name: String)" style="text;strokeColor=none;fillColor=none;align=left;verticalAlign=top;spacingLeft=4;spacingRight=4;overflow=hidden;rotatable=0;points=[[0,0.5],[1,0.5]];portConstraint=eastwest;whiteSpace=wrap;html=1;fontSize=13;" vertex="1" parent="q12dKpygNHWUWFW-9CNw-61">
          <mxGeometry y="60" width="410" height="26" as="geometry" />
        </mxCell>
        <mxCell id="q12dKpygNHWUWFW-9CNw-65" value="+ charge(): boolean" style="text;strokeColor=none;fillColor=none;align=left;verticalAlign=top;spacingLeft=4;spacingRight=4;overflow=hidden;rotatable=0;points=[[0,0.5],[1,0.5]];portConstraint=eastwest;whiteSpace=wrap;html=1;fontSize=13;" vertex="1" parent="q12dKpygNHWUWFW-9CNw-61">
          <mxGeometry y="86" width="410" height="26" as="geometry" />
        </mxCell>
        <mxCell id="q12dKpygNHWUWFW-9CNw-66" value="+ fire(): boolean" style="text;strokeColor=none;fillColor=none;align=left;verticalAlign=top;spacingLeft=4;spacingRight=4;overflow=hidden;rotatable=0;points=[[0,0.5],[1,0.5]];portConstraint=eastwest;whiteSpace=wrap;html=1;fontSize=13;" vertex="1" parent="q12dKpygNHWUWFW-9CNw-61">
          <mxGeometry y="112" width="410" height="26" as="geometry" />
        </mxCell>
        <mxCell id="q12dKpygNHWUWFW-9CNw-67" value="Parser" style="swimlane;fontStyle=1;align=center;verticalAlign=top;childLayout=stackLayout;horizontal=1;startSize=26;horizontalStack=0;resizeParent=1;resizeParentMax=0;resizeLast=0;collapsible=1;marginBottom=0;whiteSpace=wrap;html=1;fontSize=13;" vertex="1" parent="WIyWlLk6GJQsqaUBKTNV-1">
          <mxGeometry x="624" y="260" width="410" height="164" as="geometry" />
        </mxCell>
        <mxCell id="q12dKpygNHWUWFW-9CNw-68" value="- commands: CommandWords" style="text;strokeColor=none;fillColor=none;align=left;verticalAlign=top;spacingLeft=4;spacingRight=4;overflow=hidden;rotatable=0;points=[[0,0.5],[1,0.5]];portConstraint=eastwest;whiteSpace=wrap;html=1;fontSize=13;" vertex="1" parent="q12dKpygNHWUWFW-9CNw-67">
          <mxGeometry y="26" width="410" height="26" as="geometry" />
        </mxCell>
        <mxCell id="q12dKpygNHWUWFW-9CNw-71" value="- reader: Scanner" style="text;strokeColor=none;fillColor=none;align=left;verticalAlign=top;spacingLeft=4;spacingRight=4;overflow=hidden;rotatable=0;points=[[0,0.5],[1,0.5]];portConstraint=eastwest;whiteSpace=wrap;html=1;fontSize=13;" vertex="1" parent="q12dKpygNHWUWFW-9CNw-67">
          <mxGeometry y="52" width="410" height="26" as="geometry" />
        </mxCell>
        <mxCell id="q12dKpygNHWUWFW-9CNw-69" value="" style="line;strokeWidth=1;fillColor=none;align=left;verticalAlign=middle;spacingTop=-1;spacingLeft=3;spacingRight=3;rotatable=0;labelPosition=right;points=[];portConstraint=eastwest;strokeColor=inherit;fontSize=13;" vertex="1" parent="q12dKpygNHWUWFW-9CNw-67">
          <mxGeometry y="78" width="410" height="8" as="geometry" />
        </mxCell>
        <mxCell id="q12dKpygNHWUWFW-9CNw-70" value="+ Parser()" style="text;strokeColor=none;fillColor=none;align=left;verticalAlign=top;spacingLeft=4;spacingRight=4;overflow=hidden;rotatable=0;points=[[0,0.5],[1,0.5]];portConstraint=eastwest;whiteSpace=wrap;html=1;fontSize=13;" vertex="1" parent="q12dKpygNHWUWFW-9CNw-67">
          <mxGeometry y="86" width="410" height="26" as="geometry" />
        </mxCell>
        <mxCell id="q12dKpygNHWUWFW-9CNw-73" value="+ getCommands(): Command" style="text;strokeColor=none;fillColor=none;align=left;verticalAlign=top;spacingLeft=4;spacingRight=4;overflow=hidden;rotatable=0;points=[[0,0.5],[1,0.5]];portConstraint=eastwest;whiteSpace=wrap;html=1;fontSize=13;" vertex="1" parent="q12dKpygNHWUWFW-9CNw-67">
          <mxGeometry y="112" width="410" height="26" as="geometry" />
        </mxCell>
        <mxCell id="q12dKpygNHWUWFW-9CNw-72" value="+ getCommands(): String" style="text;strokeColor=none;fillColor=none;align=left;verticalAlign=top;spacingLeft=4;spacingRight=4;overflow=hidden;rotatable=0;points=[[0,0.5],[1,0.5]];portConstraint=eastwest;whiteSpace=wrap;html=1;fontSize=13;" vertex="1" parent="q12dKpygNHWUWFW-9CNw-67">
          <mxGeometry y="138" width="410" height="26" as="geometry" />
        </mxCell>
        <mxCell id="q12dKpygNHWUWFW-9CNw-74" value="CommandWords" style="swimlane;fontStyle=1;align=center;verticalAlign=top;childLayout=stackLayout;horizontal=1;startSize=26;horizontalStack=0;resizeParent=1;resizeParentMax=0;resizeLast=0;collapsible=1;marginBottom=0;whiteSpace=wrap;html=1;fontSize=13;" vertex="1" parent="WIyWlLk6GJQsqaUBKTNV-1">
          <mxGeometry x="689" y="507" width="410" height="138" as="geometry" />
        </mxCell>
        <mxCell id="q12dKpygNHWUWFW-9CNw-75" value="- validCommands: String[]" style="text;strokeColor=none;fillColor=none;align=left;verticalAlign=top;spacingLeft=4;spacingRight=4;overflow=hidden;rotatable=0;points=[[0,0.5],[1,0.5]];portConstraint=eastwest;whiteSpace=wrap;html=1;fontStyle=4;fontSize=13;" vertex="1" parent="q12dKpygNHWUWFW-9CNw-74">
          <mxGeometry y="26" width="410" height="26" as="geometry" />
        </mxCell>
        <mxCell id="q12dKpygNHWUWFW-9CNw-76" value="" style="line;strokeWidth=1;fillColor=none;align=left;verticalAlign=middle;spacingTop=-1;spacingLeft=3;spacingRight=3;rotatable=0;labelPosition=right;points=[];portConstraint=eastwest;strokeColor=inherit;fontSize=13;" vertex="1" parent="q12dKpygNHWUWFW-9CNw-74">
          <mxGeometry y="52" width="410" height="8" as="geometry" />
        </mxCell>
        <mxCell id="q12dKpygNHWUWFW-9CNw-77" value="+ CommandWords()" style="text;strokeColor=none;fillColor=none;align=left;verticalAlign=top;spacingLeft=4;spacingRight=4;overflow=hidden;rotatable=0;points=[[0,0.5],[1,0.5]];portConstraint=eastwest;whiteSpace=wrap;html=1;fontSize=13;" vertex="1" parent="q12dKpygNHWUWFW-9CNw-74">
          <mxGeometry y="60" width="410" height="26" as="geometry" />
        </mxCell>
        <mxCell id="q12dKpygNHWUWFW-9CNw-78" value="+ isCommand(aString: String): boolean" style="text;strokeColor=none;fillColor=none;align=left;verticalAlign=top;spacingLeft=4;spacingRight=4;overflow=hidden;rotatable=0;points=[[0,0.5],[1,0.5]];portConstraint=eastwest;whiteSpace=wrap;html=1;fontSize=13;" vertex="1" parent="q12dKpygNHWUWFW-9CNw-74">
          <mxGeometry y="86" width="410" height="26" as="geometry" />
        </mxCell>
        <mxCell id="q12dKpygNHWUWFW-9CNw-79" value="+ getCommandList(): String" style="text;strokeColor=none;fillColor=none;align=left;verticalAlign=top;spacingLeft=4;spacingRight=4;overflow=hidden;rotatable=0;points=[[0,0.5],[1,0.5]];portConstraint=eastwest;whiteSpace=wrap;html=1;fontSize=13;" vertex="1" parent="q12dKpygNHWUWFW-9CNw-74">
          <mxGeometry y="112" width="410" height="26" as="geometry" />
        </mxCell>
        <mxCell id="q12dKpygNHWUWFW-9CNw-90" value="Command" style="swimlane;fontStyle=1;align=center;verticalAlign=top;childLayout=stackLayout;horizontal=1;startSize=26;horizontalStack=0;resizeParent=1;resizeParentMax=0;resizeLast=0;collapsible=1;marginBottom=0;whiteSpace=wrap;html=1;fontSize=13;" vertex="1" parent="WIyWlLk6GJQsqaUBKTNV-1">
          <mxGeometry x="637" y="767" width="410" height="212" as="geometry" />
        </mxCell>
        <mxCell id="q12dKpygNHWUWFW-9CNw-91" value="- commandWord: String" style="text;strokeColor=none;fillColor=none;align=left;verticalAlign=top;spacingLeft=4;spacingRight=4;overflow=hidden;rotatable=0;points=[[0,0.5],[1,0.5]];portConstraint=eastwest;whiteSpace=wrap;html=1;fontSize=13;" vertex="1" parent="q12dKpygNHWUWFW-9CNw-90">
          <mxGeometry y="26" width="410" height="26" as="geometry" />
        </mxCell>
        <mxCell id="q12dKpygNHWUWFW-9CNw-94" value="- secondWord: String" style="text;strokeColor=none;fillColor=none;align=left;verticalAlign=top;spacingLeft=4;spacingRight=4;overflow=hidden;rotatable=0;points=[[0,0.5],[1,0.5]];portConstraint=eastwest;whiteSpace=wrap;html=1;fontSize=13;" vertex="1" parent="q12dKpygNHWUWFW-9CNw-90">
          <mxGeometry y="52" width="410" height="26" as="geometry" />
        </mxCell>
        <mxCell id="q12dKpygNHWUWFW-9CNw-92" value="" style="line;strokeWidth=1;fillColor=none;align=left;verticalAlign=middle;spacingTop=-1;spacingLeft=3;spacingRight=3;rotatable=0;labelPosition=right;points=[];portConstraint=eastwest;strokeColor=inherit;fontSize=13;" vertex="1" parent="q12dKpygNHWUWFW-9CNw-90">
          <mxGeometry y="78" width="410" height="8" as="geometry" />
        </mxCell>
        <mxCell id="q12dKpygNHWUWFW-9CNw-93" value="+ Command(firstWord: String, secondWord: String)" style="text;strokeColor=none;fillColor=none;align=left;verticalAlign=top;spacingLeft=4;spacingRight=4;overflow=hidden;rotatable=0;points=[[0,0.5],[1,0.5]];portConstraint=eastwest;whiteSpace=wrap;html=1;fontSize=13;" vertex="1" parent="q12dKpygNHWUWFW-9CNw-90">
          <mxGeometry y="86" width="410" height="26" as="geometry" />
        </mxCell>
        <mxCell id="q12dKpygNHWUWFW-9CNw-95" value="+ getCommandWord(): String&lt;div style=&quot;font-size: 13px;&quot;&gt;&lt;br style=&quot;font-size: 13px;&quot;&gt;&lt;/div&gt;" style="text;strokeColor=none;fillColor=none;align=left;verticalAlign=top;spacingLeft=4;spacingRight=4;overflow=hidden;rotatable=0;points=[[0,0.5],[1,0.5]];portConstraint=eastwest;whiteSpace=wrap;html=1;fontSize=13;" vertex="1" parent="q12dKpygNHWUWFW-9CNw-90">
          <mxGeometry y="112" width="410" height="26" as="geometry" />
        </mxCell>
        <mxCell id="q12dKpygNHWUWFW-9CNw-96" value="+ getSecondWord(): String" style="text;strokeColor=none;fillColor=none;align=left;verticalAlign=top;spacingLeft=4;spacingRight=4;overflow=hidden;rotatable=0;points=[[0,0.5],[1,0.5]];portConstraint=eastwest;whiteSpace=wrap;html=1;fontSize=13;" vertex="1" parent="q12dKpygNHWUWFW-9CNw-90">
          <mxGeometry y="138" width="410" height="22" as="geometry" />
        </mxCell>
        <mxCell id="q12dKpygNHWUWFW-9CNw-97" value="+ isUnknown(): boolean" style="text;strokeColor=none;fillColor=none;align=left;verticalAlign=top;spacingLeft=4;spacingRight=4;overflow=hidden;rotatable=0;points=[[0,0.5],[1,0.5]];portConstraint=eastwest;whiteSpace=wrap;html=1;fontSize=13;" vertex="1" parent="q12dKpygNHWUWFW-9CNw-90">
          <mxGeometry y="160" width="410" height="26" as="geometry" />
        </mxCell>
        <mxCell id="q12dKpygNHWUWFW-9CNw-98" value="+ hasSecondWord(): boolean" style="text;strokeColor=none;fillColor=none;align=left;verticalAlign=top;spacingLeft=4;spacingRight=4;overflow=hidden;rotatable=0;points=[[0,0.5],[1,0.5]];portConstraint=eastwest;whiteSpace=wrap;html=1;fontSize=13;" vertex="1" parent="q12dKpygNHWUWFW-9CNw-90">
          <mxGeometry y="186" width="410" height="26" as="geometry" />
        </mxCell>
        <mxCell id="q12dKpygNHWUWFW-9CNw-99" value="Item" style="swimlane;fontStyle=1;align=center;verticalAlign=top;childLayout=stackLayout;horizontal=1;startSize=26;horizontalStack=0;resizeParent=1;resizeParentMax=0;resizeLast=0;collapsible=1;marginBottom=0;whiteSpace=wrap;html=1;fontSize=13;" vertex="1" parent="WIyWlLk6GJQsqaUBKTNV-1">
          <mxGeometry x="624" y="1102" width="410" height="190" as="geometry" />
        </mxCell>
        <mxCell id="q12dKpygNHWUWFW-9CNw-100" value="- description: String&lt;div style=&quot;font-size: 13px;&quot;&gt;&lt;br style=&quot;font-size: 13px;&quot;&gt;&lt;/div&gt;" style="text;strokeColor=none;fillColor=none;align=left;verticalAlign=top;spacingLeft=4;spacingRight=4;overflow=hidden;rotatable=0;points=[[0,0.5],[1,0.5]];portConstraint=eastwest;whiteSpace=wrap;html=1;fontSize=13;" vertex="1" parent="q12dKpygNHWUWFW-9CNw-99">
          <mxGeometry y="26" width="410" height="26" as="geometry" />
        </mxCell>
        <mxCell id="q12dKpygNHWUWFW-9CNw-104" value="- weight: double" style="text;strokeColor=none;fillColor=none;align=left;verticalAlign=top;spacingLeft=4;spacingRight=4;overflow=hidden;rotatable=0;points=[[0,0.5],[1,0.5]];portConstraint=eastwest;whiteSpace=wrap;html=1;fontSize=13;" vertex="1" parent="q12dKpygNHWUWFW-9CNw-99">
          <mxGeometry y="52" width="410" height="26" as="geometry" />
        </mxCell>
        <mxCell id="q12dKpygNHWUWFW-9CNw-103" value="- name: String" style="text;strokeColor=none;fillColor=none;align=left;verticalAlign=top;spacingLeft=4;spacingRight=4;overflow=hidden;rotatable=0;points=[[0,0.5],[1,0.5]];portConstraint=eastwest;whiteSpace=wrap;html=1;fontSize=13;" vertex="1" parent="q12dKpygNHWUWFW-9CNw-99">
          <mxGeometry y="78" width="410" height="26" as="geometry" />
        </mxCell>
        <mxCell id="q12dKpygNHWUWFW-9CNw-101" value="" style="line;strokeWidth=1;fillColor=none;align=left;verticalAlign=middle;spacingTop=-1;spacingLeft=3;spacingRight=3;rotatable=0;labelPosition=right;points=[];portConstraint=eastwest;strokeColor=inherit;fontSize=13;" vertex="1" parent="q12dKpygNHWUWFW-9CNw-99">
          <mxGeometry y="104" width="410" height="8" as="geometry" />
        </mxCell>
        <mxCell id="q12dKpygNHWUWFW-9CNw-102" value="+ item(description: String, weight: double, name: String)" style="text;strokeColor=none;fillColor=none;align=left;verticalAlign=top;spacingLeft=4;spacingRight=4;overflow=hidden;rotatable=0;points=[[0,0.5],[1,0.5]];portConstraint=eastwest;whiteSpace=wrap;html=1;fontSize=13;" vertex="1" parent="q12dKpygNHWUWFW-9CNw-99">
          <mxGeometry y="112" width="410" height="26" as="geometry" />
        </mxCell>
        <mxCell id="q12dKpygNHWUWFW-9CNw-107" value="+ getItemName(): String" style="text;strokeColor=none;fillColor=none;align=left;verticalAlign=top;spacingLeft=4;spacingRight=4;overflow=hidden;rotatable=0;points=[[0,0.5],[1,0.5]];portConstraint=eastwest;whiteSpace=wrap;html=1;fontSize=13;" vertex="1" parent="q12dKpygNHWUWFW-9CNw-99">
          <mxGeometry y="138" width="410" height="26" as="geometry" />
        </mxCell>
        <mxCell id="q12dKpygNHWUWFW-9CNw-108" value="+ getDescription(): String" style="text;strokeColor=none;fillColor=none;align=left;verticalAlign=top;spacingLeft=4;spacingRight=4;overflow=hidden;rotatable=0;points=[[0,0.5],[1,0.5]];portConstraint=eastwest;whiteSpace=wrap;html=1;fontSize=13;" vertex="1" parent="q12dKpygNHWUWFW-9CNw-99">
          <mxGeometry y="164" width="410" height="26" as="geometry" />
        </mxCell>
        <mxCell id="q12dKpygNHWUWFW-9CNw-109" value="TransporterRoom" style="swimlane;fontStyle=1;align=center;verticalAlign=top;childLayout=stackLayout;horizontal=1;startSize=26;horizontalStack=0;resizeParent=1;resizeParentMax=0;resizeLast=0;collapsible=1;marginBottom=0;whiteSpace=wrap;html=1;fontSize=13;" vertex="1" parent="WIyWlLk6GJQsqaUBKTNV-1">
          <mxGeometry x="624" y="1378" width="410" height="112" as="geometry" />
        </mxCell>
        <mxCell id="q12dKpygNHWUWFW-9CNw-110" value="- randomRoom: Random" style="text;strokeColor=none;fillColor=none;align=left;verticalAlign=top;spacingLeft=4;spacingRight=4;overflow=hidden;rotatable=0;points=[[0,0.5],[1,0.5]];portConstraint=eastwest;whiteSpace=wrap;html=1;fontSize=13;" vertex="1" parent="q12dKpygNHWUWFW-9CNw-109">
          <mxGeometry y="26" width="410" height="26" as="geometry" />
        </mxCell>
        <mxCell id="q12dKpygNHWUWFW-9CNw-111" value="" style="line;strokeWidth=1;fillColor=none;align=left;verticalAlign=middle;spacingTop=-1;spacingLeft=3;spacingRight=3;rotatable=0;labelPosition=right;points=[];portConstraint=eastwest;strokeColor=inherit;fontSize=13;" vertex="1" parent="q12dKpygNHWUWFW-9CNw-109">
          <mxGeometry y="52" width="410" height="8" as="geometry" />
        </mxCell>
        <mxCell id="q12dKpygNHWUWFW-9CNw-112" value="+ TransporterRoom(description: String)" style="text;strokeColor=none;fillColor=none;align=left;verticalAlign=top;spacingLeft=4;spacingRight=4;overflow=hidden;rotatable=0;points=[[0,0.5],[1,0.5]];portConstraint=eastwest;whiteSpace=wrap;html=1;fontSize=13;" vertex="1" parent="q12dKpygNHWUWFW-9CNw-109">
          <mxGeometry y="60" width="410" height="26" as="geometry" />
        </mxCell>
        <mxCell id="q12dKpygNHWUWFW-9CNw-113" value="+ getExit(direction: String): Room" style="text;strokeColor=none;fillColor=none;align=left;verticalAlign=top;spacingLeft=4;spacingRight=4;overflow=hidden;rotatable=0;points=[[0,0.5],[1,0.5]];portConstraint=eastwest;whiteSpace=wrap;html=1;fontSize=13;" vertex="1" parent="q12dKpygNHWUWFW-9CNw-109">
          <mxGeometry y="86" width="410" height="26" as="geometry" />
        </mxCell>
        <mxCell id="q12dKpygNHWUWFW-9CNw-117" value="Use" style="endArrow=open;endSize=12;dashed=1;html=1;rounded=0;exitX=0.524;exitY=1.291;exitDx=0;exitDy=0;exitPerimeter=0;" edge="1" parent="WIyWlLk6GJQsqaUBKTNV-1" source="q12dKpygNHWUWFW-9CNw-22">
          <mxGeometry x="-0.0687" y="30" width="160" relative="1" as="geometry">
            <mxPoint x="403" y="858" as="sourcePoint" />
            <mxPoint x="234" y="780" as="targetPoint" />
            <mxPoint as="offset" />
          </mxGeometry>
        </mxCell>
        <mxCell id="q12dKpygNHWUWFW-9CNw-118" value="Use" style="endArrow=open;endSize=12;dashed=1;html=1;rounded=0;exitX=1;exitY=0.5;exitDx=0;exitDy=0;entryX=-0.007;entryY=-0.205;entryDx=0;entryDy=0;entryPerimeter=0;" edge="1" parent="WIyWlLk6GJQsqaUBKTNV-1" source="q12dKpygNHWUWFW-9CNw-4" target="q12dKpygNHWUWFW-9CNw-71">
          <mxGeometry x="0.122" y="20" width="160" relative="1" as="geometry">
            <mxPoint x="503" y="305" as="sourcePoint" />
            <mxPoint x="494" y="379" as="targetPoint" />
            <mxPoint as="offset" />
          </mxGeometry>
        </mxCell>
        <mxCell id="q12dKpygNHWUWFW-9CNw-119" value="Use" style="endArrow=open;endSize=12;dashed=1;html=1;rounded=0;entryX=0.28;entryY=0;entryDx=0;entryDy=0;entryPerimeter=0;exitX=0.44;exitY=1.231;exitDx=0;exitDy=0;exitPerimeter=0;" edge="1" parent="WIyWlLk6GJQsqaUBKTNV-1" source="q12dKpygNHWUWFW-9CNw-72" target="q12dKpygNHWUWFW-9CNw-74">
          <mxGeometry x="0.122" y="20" width="160" relative="1" as="geometry">
            <mxPoint x="806" y="442" as="sourcePoint" />
            <mxPoint x="851" y="457" as="targetPoint" />
            <mxPoint as="offset" />
          </mxGeometry>
        </mxCell>
        <mxCell id="q12dKpygNHWUWFW-9CNw-121" value="Use" style="endArrow=open;endSize=12;dashed=1;html=1;rounded=0;entryX=0.004;entryY=-0.038;entryDx=0;entryDy=0;entryPerimeter=0;" edge="1" parent="WIyWlLk6GJQsqaUBKTNV-1">
          <mxGeometry x="0.0755" y="-26" width="160" relative="1" as="geometry">
            <mxPoint x="650" y="429.53" as="sourcePoint" />
            <mxPoint x="650.0000000000001" y="767.0039999999999" as="targetPoint" />
            <mxPoint as="offset" />
          </mxGeometry>
        </mxCell>
        <mxCell id="q12dKpygNHWUWFW-9CNw-123" value="Use" style="endArrow=open;endSize=12;dashed=1;html=1;rounded=0;exitX=1;exitY=0.5;exitDx=0;exitDy=0;entryX=-0.007;entryY=-0.205;entryDx=0;entryDy=0;entryPerimeter=0;" edge="1" parent="WIyWlLk6GJQsqaUBKTNV-1">
          <mxGeometry x="0.122" y="20" width="160" relative="1" as="geometry">
            <mxPoint x="423" y="118" as="sourcePoint" />
            <mxPoint x="624" y="120" as="targetPoint" />
            <mxPoint as="offset" />
          </mxGeometry>
        </mxCell>
        <mxCell id="q12dKpygNHWUWFW-9CNw-124" value="Use" style="endArrow=open;endSize=12;dashed=1;html=1;rounded=0;exitX=1.011;exitY=1.317;exitDx=0;exitDy=0;exitPerimeter=0;" edge="1" parent="WIyWlLk6GJQsqaUBKTNV-1" source="q12dKpygNHWUWFW-9CNw-21">
          <mxGeometry x="-0.3845" y="24" width="160" relative="1" as="geometry">
            <mxPoint x="423" y="637" as="sourcePoint" />
            <mxPoint x="793" y="754" as="targetPoint" />
            <mxPoint as="offset" />
          </mxGeometry>
        </mxCell>
        <mxCell id="q12dKpygNHWUWFW-9CNw-125" value="Use" style="endArrow=open;endSize=12;dashed=1;html=1;rounded=0;exitX=1;exitY=0.5;exitDx=0;exitDy=0;" edge="1" parent="WIyWlLk6GJQsqaUBKTNV-1">
          <mxGeometry x="-0.3845" y="24" width="160" relative="1" as="geometry">
            <mxPoint x="420" y="585" as="sourcePoint" />
            <mxPoint x="676" y="1092" as="targetPoint" />
            <mxPoint as="offset" />
          </mxGeometry>
        </mxCell>
        <mxCell id="q12dKpygNHWUWFW-9CNw-126" value="Use" style="endArrow=open;endSize=12;dashed=1;html=1;rounded=0;exitX=1;exitY=0.5;exitDx=0;exitDy=0;entryX=0.025;entryY=-0.071;entryDx=0;entryDy=0;entryPerimeter=0;" edge="1" parent="WIyWlLk6GJQsqaUBKTNV-1" target="q12dKpygNHWUWFW-9CNw-109">
          <mxGeometry x="-0.3845" y="24" width="160" relative="1" as="geometry">
            <mxPoint x="420" y="715" as="sourcePoint" />
            <mxPoint x="676" y="1222" as="targetPoint" />
            <mxPoint as="offset" />
          </mxGeometry>
        </mxCell>
        <mxCell id="q12dKpygNHWUWFW-9CNw-127" value="Extends" style="endArrow=block;endSize=16;endFill=0;html=1;rounded=0;entryX=1.015;entryY=0.115;entryDx=0;entryDy=0;entryPerimeter=0;" edge="1" parent="WIyWlLk6GJQsqaUBKTNV-1" target="q12dKpygNHWUWFW-9CNw-104">
          <mxGeometry width="160" relative="1" as="geometry">
            <mxPoint x="1034" y="156" as="sourcePoint" />
            <mxPoint x="1040" y="1092" as="targetPoint" />
            <Array as="points">
              <mxPoint x="1170" y="156" />
              <mxPoint x="1170" y="1157" />
            </Array>
          </mxGeometry>
        </mxCell>
        <mxCell id="q12dKpygNHWUWFW-9CNw-128" value="Extends" style="endArrow=block;endSize=16;endFill=0;html=1;rounded=0;entryX=0.692;entryY=1.308;entryDx=0;entryDy=0;entryPerimeter=0;exitX=0;exitY=0.5;exitDx=0;exitDy=0;" edge="1" parent="WIyWlLk6GJQsqaUBKTNV-1" source="q12dKpygNHWUWFW-9CNw-110" target="q12dKpygNHWUWFW-9CNw-60">
          <mxGeometry x="0.0023" y="-13" width="160" relative="1" as="geometry">
            <mxPoint x="300" y="1443" as="sourcePoint" />
            <mxPoint x="550" y="1433.5" as="targetPoint" />
            <Array as="points">
              <mxPoint x="300" y="1417" />
            </Array>
            <mxPoint as="offset" />
          </mxGeometry>
        </mxCell>
        <mxCell id="q12dKpygNHWUWFW-9CNw-129" value="Use" style="endArrow=open;endSize=12;dashed=1;html=1;rounded=0;exitX=1;exitY=0.5;exitDx=0;exitDy=0;entryX=-0.007;entryY=-0.205;entryDx=0;entryDy=0;entryPerimeter=0;" edge="1" parent="WIyWlLk6GJQsqaUBKTNV-1">
          <mxGeometry x="0.122" y="20" width="160" relative="1" as="geometry">
            <mxPoint x="423" y="1157" as="sourcePoint" />
            <mxPoint x="624" y="1159" as="targetPoint" />
            <mxPoint as="offset" />
          </mxGeometry>
        </mxCell>
      </root>
    </mxGraphModel>
  </diagram>
</mxfile>
